<svg xmlns="http://www.w3.org/2000/svg" viewBox="0 0 125 134.84"><title>Artboard 21 copy</title><g id="person_13" data-name="person 13"><path id="neck-2" data-name="neck" d="M51.22,80.53s-.3,12-.7,13.32S43,96,41.4,97.94s1,5.4,2.18,6.73c5.79,6.48,20.53,7.23,28.29,5.56C76.13,109.31,85.7,104,86.52,99c.41-2.45-6.81-3.81-8.51-4.9s-2.53-13.86-2.53-13.86Z" fill="#fce7d4" stroke="#020202" stroke-miterlimit="10" stroke-width="0.75"/><path id="head-3" data-name="head" d="M62.52,36A27.37,27.37,0,0,0,52.37,37.5a9.94,9.94,0,0,0-5.48,3.92,12.74,12.74,0,0,0-1.29,3.72Q44,52.27,43,59.52c-.26-.81-.21-1.45-.48-2s-1.83-.49-2,.55A5.12,5.12,0,0,0,41,60.56a14.22,14.22,0,0,1,.88,2.6c.52,3.09-.3,3.29.05,5.7a2.26,2.26,0,0,0,1.24,1.55c.23.11,1.16.43,1.15-.07a32.21,32.21,0,0,0,1.11,8.53C46.51,82.25,50,85,52.56,87.19a26.61,26.61,0,0,0,6.35,4.47c6.23,2.8,12.29-1.2,15.7-6.38,2.34-3.54,5.41-5.9,5.75-10a34.22,34.22,0,0,0,.54-4.48c0-.45.56-.32.84-.3,1.67.11,2-2.33,2.18-3.55.33-2.12.16-4.36,1-6.38.42-1,1.57-2.49.35-3.4a2.1,2.1,0,0,0-2.45.05c-.89.63-.88,1.57-1.19,2.52a51.35,51.35,0,0,0-2-13.25A12,12,0,0,0,78,42.64a13.88,13.88,0,0,0-5.66-4.83,19.28,19.28,0,0,0-4.88-1.49A48.6,48.6,0,0,0,62.52,36Z" fill="#fce7d4" stroke="#020202" stroke-miterlimit="10" stroke-width="0.75"/><path id="nose-4" data-name="nose" d="M63,68.1c-1.19,3.53-8.24,2.74-8.39,4.6-.25,2.88,5.11,2.45,7.32,1.4" fill="none" stroke="#020202" stroke-miterlimit="10" stroke-width="0.75"/><g id="hair-6" data-name="hair"><path d="M80.89,57.5s.32-10.59-2.78-12.22c-2.75-1.45-5.59-3.23-8.75-3.57a58,58,0,0,0-10-.46c-2.69.16-8.14-.14-10,2.4-1.46,2-5.2,18.61-6,17.52a16.23,16.23,0,0,1-2.5-6.6A23.71,23.71,0,0,1,42.41,42c1.64-3.75,0-2.66,2.28-6.06a26.44,26.44,0,0,1,7.5-6.83c1.14-.65.84-1.06,1.17-1.19A2,2,0,0,0,54,27.5s-1.19-2.5-1.57-3.61a22.6,22.6,0,0,1-1.15-3.64,4.38,4.38,0,0,1,.85-3.6c.78-.91,2.06-2.47,3.23-2.8a11.41,11.41,0,0,1,5.32.18c.91.27,1.53.7,2.16.4s1.82-1.84,2.8-1.85c1.76,0,5.22,1.47,5.73,3.37s.05,1.72,1.71,2.67,3,4.21,3.44,6c.32,1.29,0,3.09-1.67,3.58-.57.16-1.55.35-1.55.35s1.71,1.06,1.82,1.82a11.64,11.64,0,0,1,0,1.2,3.86,3.86,0,0,0,.59.87s7.34,3.1,8.13,6,.35,3.75,1.17,4.79a7.24,7.24,0,0,1,1.55,5,38.17,38.17,0,0,1-1.09,7.2c-.16.92-1.79,3.12-2.31,4s-1.49,3-1.9,2.69S80.88,58,80.89,57.5Z" fill="#f99c16" stroke="#000" stroke-miterlimit="10" stroke-width="0.75"/><path d="M54,27.5a6.38,6.38,0,0,1,3.84-.59,28,28,0,0,1,3.69,1.19" fill="none" stroke="#020202" stroke-miterlimit="10" stroke-width="0.75"/><path d="M73.25,28.56s-6.33.06-9.81-5" fill="none" stroke="#020202" stroke-miterlimit="10" stroke-width="0.75"/><path d="M62.79,14.43a7.71,7.71,0,0,0,1.41,4c2.07,3.37,4.13,4,4.13,4" fill="none" stroke="#020202" stroke-miterlimit="10" stroke-width="0.75"/><path d="M56.7,13.78A6.41,6.41,0,0,0,56.81,20a13,13,0,0,0,3.52,4.35" fill="none" stroke="#020202" stroke-miterlimit="10" stroke-width="0.75"/><path d="M76,32.58c-.06.25-.51-.4-3.47-1.2" fill="none" stroke="#020202" stroke-miterlimit="10" stroke-width="0.75"/><path d="M57.39,39c-1.32-1.05-3.18-2.83-2.79-4.72a7.6,7.6,0,0,1,2.79-3.63" fill="none" stroke="#020202" stroke-miterlimit="10" stroke-width="0.75"/><path d="M71.16,39.73s4.56-1.93,3.58-4.17" fill="none" stroke="#020202" stroke-miterlimit="10" stroke-width="0.75"/><path d="M62.76,38.65s3.48-.87,2.41-3.81a13.36,13.36,0,0,1-1.1-4.65" fill="none" stroke="#020202" stroke-miterlimit="10" stroke-width="0.75"/></g><g id="eyes-7" data-name="eyes"><path d="M65.84,53.53c4.26-.57,9.49-5.33,11.3-1.19" fill="none" stroke="#020202" stroke-miterlimit="10" stroke-width="0.75"/><path d="M57.72,57c-2.76-.64-9.51-4.92-11.33-.76" fill="none" stroke="#020202" stroke-miterlimit="10" stroke-width="0.75"/><circle cx="71.27" cy="61.54" r="1.17" fill="#fff" stroke="#020202" stroke-miterlimit="10" stroke-width="0.75"/><circle cx="53.16" cy="61.52" r="1.17" fill="#fff" stroke="#020202" stroke-miterlimit="10" stroke-width="0.75"/><path d="M67.74,60.67s3.37-1.71,4.7-1.21S74.11,61,74.88,61" fill="none" stroke="#020202" stroke-miterlimit="10" stroke-width="0.75"/><path d="M56.09,61.8S54.94,59,53.35,59.42a26.19,26.19,0,0,0-3.11.88" fill="none" stroke="#020202" stroke-miterlimit="10" stroke-width="0.75"/></g><g id="shirt-3" data-name="shirt"><path d="M4.63,145.39c.55-3.26,1.49-8.59,2.41-13.78,1-5.91,2-11.5,2.43-13.91l.19-1.15c.6-3.77.91-5.66,3.1-9.28,2.34-3.86,6.83-5.21,11.33-6.09,2-.4,3.56-.83,5-1.25a42.7,42.7,0,0,1,6.23-1.38A35.38,35.38,0,0,0,43,96.05a10.3,10.3,0,0,1,.3,1.09c.61,2.4,1.86,7.39,7.32,10.14A26.94,26.94,0,0,0,62.72,110a28.46,28.46,0,0,0,15.6-4.56c2.67-1.77,4.08-4.35,5.57-7.08.42-.77.85-1.55,1.32-2.34a47.46,47.46,0,0,1,6.33,2c1,.37,2,.74,3,1.08a39.66,39.66,0,0,0,5.06,1.15c5,.93,10.65,2,12.38,6.8,1.84,5.13,3.66,16.17,5.26,25.91.84,5.06,1.56,9.46,2.19,12.41Z" fill="#fff"/><path d="M85.39,96.48a46.78,46.78,0,0,1,6,1.91c1,.37,2,.75,3,1.08a38.94,38.94,0,0,0,5.1,1.17c4.89.91,10.44,1.94,12.1,6.56,1.83,5.09,3.72,16.6,5.24,25.84.8,4.81,1.49,9,2.1,12H5.07c.56-3.28,1.47-8.38,2.34-13.32,1-5.92,2-11.51,2.43-13.93l.19-1.15c.61-3.83.9-5.59,3.05-9.15,2.26-3.73,6.66-5,11.08-5.92,2.06-.4,3.58-.83,5.06-1.24a41.21,41.21,0,0,1,6.18-1.38,34.64,34.64,0,0,0,7.39-2.36c.05.21.12.45.17.67.62,2.45,1.9,7.56,7.51,10.38a27.26,27.26,0,0,0,12.25,2.79,28.91,28.91,0,0,0,15.81-4.61c2.74-1.83,4.17-4.45,5.69-7.22.37-.68.76-1.39,1.17-2.09M43.1,95.62a.11.11,0,0,0-.07,0,35.79,35.79,0,0,1-7.74,2.54c-4.64.64-6.63,1.72-11.27,2.63-4.37.86-9.12,2.2-11.58,6.26s-2.58,6-3.34,10.57-3.79,21.48-4.92,28.12H119.91c-1.82-8.28-4.69-30.84-7.56-38.82-2.44-6.81-12.13-6.35-17.67-8.18-3.21-1.06-6.33-2.47-9.66-3.12-2.2,3.64-3.51,7.26-6.91,9.52a28,28,0,0,1-15.39,4.49,26.66,26.66,0,0,1-11.92-2.71C43.57,103.3,44,95.62,43.1,95.62Z"/></g><g id="shirt_seams" data-name="shirt seams"><path d="M37.17,98.42s1,6.48,4.71,10.7S51,115.8,62.79,115.8s18.14-4.09,19.91-5.93a65.74,65.74,0,0,0,7.77-11.79" fill="none" stroke="#000" stroke-miterlimit="10" stroke-width="0.75"/></g><line id="beauty_mark" data-name="beauty mark" x1="75.99" y1="63.64" x2="75.99" y2="64.61" fill="none" stroke="#020202" stroke-miterlimit="10" stroke-width="0.75"/><g id="glasses-2" data-name="glasses"><path d="M59.33,60.83a3.74,3.74,0,0,1,2.84-1.53,4.12,4.12,0,0,1,3,1.53" fill="none" stroke="#020202" stroke-miterlimit="10" stroke-width="3"/><path d="M51.68,52.89a8.63,8.63,0,1,0,8.63,8.63A8.63,8.63,0,0,0,51.68,52.89Zm0,14.43a5.8,5.8,0,1,1,5.79-5.8A5.8,5.8,0,0,1,51.68,67.32Z"/><path d="M72.46,52.89a8.63,8.63,0,1,0,8.62,8.63A8.63,8.63,0,0,0,72.46,52.89Zm0,14.43a5.8,5.8,0,1,1,5.79-5.8A5.8,5.8,0,0,1,72.49,67.32Z"/></g><path id="mouth-4" data-name="mouth" d="M66.69,82.89c0,2-3.95,2.18-4.46,2.18s-.92-1.61-.92-3.58.41-3.58.92-3.58S66.69,80.91,66.69,82.89Z" fill="#fff" stroke="#020202" stroke-miterlimit="10" stroke-width="0.75"/><g id="stripe"><polygon points="115.93 127.3 8.2 127.3 7.63 130.92 116.49 130.92 115.93 127.3" fill="#3caa33"/><polygon points="114.41 119.03 9.65 119.03 9.02 122.65 115.09 122.65 114.41 119.03" fill="#3caa33"/><path d="M43.34,111h-32a8.35,8.35,0,0,0-.61,1.71c-.2.62-.28,1.47-.38,1.91H50Z" fill="#3caa33"/><path d="M38,102.61l-18.44.17a2.13,2.13,0,0,0-.7.18c-.33.13-.65.27-1,.42s-.82.36-1.22.58a10.31,10.31,0,0,0-1.09.78c-.36.27-.64.54-1,.84a4.08,4.08,0,0,0-.36.36s-.24.29-.23.29H40c-.35-.43-.28-.24-.53-.64a8.7,8.7,0,0,1-.92-1.75A11.49,11.49,0,0,0,38,102.61Z" fill="#3caa33"/><path d="M88.22,102.61l19.18.18s.07,0,.09.06l.18.1c.35.19.7.39,1,.61s.48.27.7.42a7.48,7.48,0,0,1,1,1,3.24,3.24,0,0,1,.66,1,2.26,2.26,0,0,0,.11.26H85.94a3.76,3.76,0,0,0,.53-.72c.63-1,.47-.68,1.06-1.67C87.8,103.39,87.93,103.14,88.22,102.61Z" fill="#3caa33"/><path d="M81.62,111h31.11s.38,1.51.41,1.65c.15.65.4,1.77.43,2H74.76Z" fill="#3caa33"/></g></g></svg>